# xmcd CD database file
#
# Track frame offsets:
#	150
#	21625
#	44132
#	65630
#	85179
#	107527
#	130170
#	152550
#	175550
#	195875
#
# Disc length: 2841 seconds
#
# Revision: 1
# Processed by: cddbd v1.5.1PL2 Copyright (c) Steve Scherf et al.
# Submitted via: CDex 1.51
#
DISCID=7e0b170a
DTITLE=Trina Medina - Entrega
DYEAR=1997
DGENRE=Salsa
TTITLE0=Tu me la pagaràs
TTITLE1=Puede ser
TTITLE2=Vengo con todo
TTITLE3=Duèrmete
TTITLE4=Senor amor
TTITLE5=Amor de camino
TTITLE6=Me quieres o no
TTITLE7=Esta vez
TTITLE8=Como poder olvidarte
TTITLE9=Cuarto de cristal
EXTD=YEAR: 1997
EXTT0=
EXTT1=
EXTT2=
EXTT3=
EXTT4=
EXTT5=
EXTT6=
EXTT7=
EXTT8=
EXTT9=
PLAYORDER=
